<mxfile host="app.diagrams.net" modified="2023-11-02T12:23:30.743Z" agent="Mozilla/5.0 (Macintosh; Intel Mac OS X 10_15_7) AppleWebKit/537.36 (KHTML, like Gecko) Chrome/118.0.0.0 Safari/537.36 Edg/118.0.2088.76" version="22.0.8" etag="R0ACocsq9zZxyUf-va4c" type="github">
  <diagram name="第 1 页" id="3s6c-eC_6tVsreLQG09W">
    <mxGraphModel>
      <root>
        <mxCell id="0" />
        <mxCell id="1" parent="0" />
      </root>
    </mxGraphModel>
  </diagram>
</mxfile>
